<svg xmlns="http://www.w3.org/2000/svg" viewBox="0 0 32 32"><path d="M8 4v7h2V6h12v5h2V4zm4 4v2h8V8zm-7 4v2H4v2h1v9c0 1.645 1.355 3 3 3h16c1.645 0 3-1.355 3-3v-9h1v-2h-1v-2H17v2h2v1h-6v-1h2v-2zm2 2h4v3h10v-3h4v11c0 .563-.438 1-1 1H8c-.563 0-1-.438-1-1zm3 5c-.55 0-1 .45-1 1s.45 1 1 1 1-.45 1-1-.45-1-1-1zm4 0c-.55 0-1 .45-1 1s.45 1 1 1 1-.45 1-1-.45-1-1-1zm4 0c-.55 0-1 .45-1 1s.45 1 1 1 1-.45 1-1-.45-1-1-1zm4 0c-.55 0-1 .45-1 1s.45 1 1 1 1-.45 1-1-.45-1-1-1zm-10 3c-.55 0-1 .45-1 1s.45 1 1 1 1-.45 1-1-.45-1-1-1zm4 0c-.55 0-1 .45-1 1s.45 1 1 1 1-.45 1-1-.45-1-1-1zm4 0c-.55 0-1 .45-1 1s.45 1 1 1 1-.45 1-1-.45-1-1-1z"/></svg>