<svg xmlns="http://www.w3.org/2000/svg" viewBox="0 0 32 32"><path d="M8 4v7h2V6h12v5h2V4H8zm4 4v2h8V8h-8zm-7 4v2H4v2h1v9c0 1.6 1.4 3 3 3h16c1.6 0 3-1.4 3-3v-9h1v-2h-1v-2H17v2h2v1h-6v-1h2v-2H5zm2 2h4v3h10v-3h4v11c0 .6-.4 1-1 1H8c-.6 0-1-.4-1-1V14zm3 5c-.6 0-1 .4-1 1s.4 1 1 1 1-.4 1-1-.4-1-1-1zm4 0c-.6 0-1 .4-1 1s.4 1 1 1 1-.4 1-1-.4-1-1-1zm4 0c-.6 0-1 .4-1 1s.4 1 1 1 1-.4 1-1-.4-1-1-1zm4 0c-.6 0-1 .4-1 1s.4 1 1 1 1-.4 1-1-.4-1-1-1zm-10 3c-.6 0-1 .4-1 1s.4 1 1 1 1-.4 1-1-.4-1-1-1zm4 0c-.6 0-1 .4-1 1s.4 1 1 1 1-.4 1-1-.4-1-1-1zm4 0c-.6 0-1 .4-1 1s.4 1 1 1 1-.4 1-1-.4-1-1-1z" fill="#ddb852"/></svg>