<svg xmlns="http://www.w3.org/2000/svg" viewBox="0 0 60 60"><path d="M0 40.4l22.5-11.2L0 17.9l30-15 30 15-26.6 13.3V57L0 40.4zm26.6 5.8V34.6L15 40.4l11.6 5.8zm0-22.5V12.1L15 17.9l11.6 5.8zm6.8 0L45 17.9l-11.6-5.8v11.6z" fill="#fff"/><linearGradient id="a" gradientUnits="userSpaceOnUse" x1="30" y1="10.438" x2="30" y2="14.653"><stop offset="0" stop-opacity=".5"/><stop offset="1" stop-opacity="0"/></linearGradient><path opacity=".5" fill="url(#a)" d="M33.4 18.9h-6.8v-6.8l3.4-1.6 3.4 1.6z"/><linearGradient id="b" gradientUnits="userSpaceOnUse" x1="28.046" y1="33.897" x2="30.479" y2="38.764"><stop offset="0" stop-opacity=".5"/><stop offset="1" stop-opacity="0"/></linearGradient><path opacity=".5" fill="url(#b)" d="M33.4 31.2l-6.8 3.4v9.8h6.8z"/><linearGradient id="c" gradientUnits="userSpaceOnUse" x1="26.764" y1="26.989" x2="24.93" y2="23.292"><stop offset="0" stop-opacity=".5"/><stop offset="1" stop-opacity="0"/></linearGradient><path opacity=".5" fill="url(#c)" d="M33.4 23.7l-10.9 5.5-7-3.5 6.8-4.1 4.3 2.1v-4.8h6.8z"/><linearGradient id="d" gradientUnits="userSpaceOnUse" x1="26.631" y1="25.465" x2="22.783" y2="25.465"><stop offset="0" stop-opacity=".5"/><stop offset="1" stop-opacity="0"/></linearGradient><path opacity=".5" fill="url(#d)" d="M22.5 29.2l4.1-2.1v-3.4l-3.8-1.9-5.5 4.8z"/></svg>