<svg xmlns="http://www.w3.org/2000/svg" viewBox="0 0 50 50"><path d="M34.6 4c-.8 0-1.6.1-2.4.4-1.6.5-3.4 1.6-5.1 3-.7.6-1.4 1.2-2.1 1.9-.7-.7-1.4-1.3-2-1.8-1.8-1.4-3.5-2.5-5.1-3-1.6-.5-3.3-.5-4.6.2s-2.1 2.2-2.5 3.9c-.4 1.7-.3 3.7 0 5.9.1.8.3 1.6.5 2.4-.8.2-1.5.5-2.2.7-2.1.8-3.8 1.8-5 2.9S2 23.1 2 24.6s.8 2.9 2.1 4.1 3 2.1 5 2.9c.7.3 1.5.5 2.3.8-.3 1.1-.5 2.2-.7 3.2-.4 2.2-.4 4.2 0 5.9.4 1.7 1.2 3.1 2.5 3.9 1.3.8 3 .8 4.6.2s3.3-1.6 5.1-3c.7-.6 1.4-1.2 2.1-1.9.7.7 1.4 1.3 2.1 1.9 1.8 1.4 3.5 2.5 5.1 3s3.3.5 4.6-.2 2.1-2.2 2.5-3.9.3-3.7 0-5.9c-.2-1-.4-2.1-.7-3.2.8-.3 1.7-.5 2.4-.8 2.1-.8 3.8-1.8 5-2.9s2.1-2.5 2.1-4.1-.8-2.9-2.1-4.1c-1.2-1.2-3-2.1-5-2.9-.7-.3-1.4-.5-2.2-.8.2-.8.4-1.7.5-2.4.4-2.2.4-4.2 0-5.9-.4-1.7-1.2-3.1-2.5-3.9-.7-.4-1.5-.6-2.2-.6zm-.1 2c.5 0 .9.1 1.3.3.7.4 1.2 1.2 1.5 2.5.3 1.3.3 3.1-.1 5.2-.1.7-.3 1.5-.5 2.2-2-.5-4.3-.9-6.7-1.1-1.2-1.7-2.4-3.2-3.7-4.5.7-.6 1.3-1.2 1.9-1.8 1.6-1.3 3.2-2.2 4.4-2.6.8-.1 1.4-.2 1.9-.2zm-19 0c.5 0 1.1.1 1.7.3 1.3.4 2.8 1.3 4.4 2.7.6.5 1.3 1.1 1.9 1.7-1.3 1.4-2.5 2.9-3.7 4.6-2.4.2-4.6.6-6.6 1.1-.2-.8-.4-1.5-.5-2.2-.3-2.1-.3-3.9-.1-5.2.3-1.3.8-2.1 1.5-2.5.5-.3.9-.5 1.4-.5zm9.5 6.1c.8.9 1.6 1.9 2.4 2.9H25c-.8 0-1.7 0-2.5.1.8-1.1 1.7-2.1 2.5-3zm0 4.9c1.4 0 2.7.1 4 .2.9 1.3 1.8 2.6 2.6 4.1.7 1.3 1.4 2.5 2 3.8-.6 1.3-1.3 2.5-2 3.8-.6 1.1-1.3 2.2-2 3.2-1.5.1-3 .2-4.5.2-1.6 0-3.1-.1-4.6-.2-.7-1-1.3-2.1-2-3.2-.7-1.3-1.4-2.5-2-3.8.6-1.3 1.3-2.5 2-3.8.8-1.4 1.7-2.8 2.6-4 1.2-.2 2.5-.3 3.9-.3zm6.5.4c1.6.2 3.2.5 4.6.8-.4 1.4-1 2.9-1.6 4.4-.4-.8-.8-1.6-1.3-2.4-.5-1-1.1-1.9-1.7-2.8zm-13.2 0c-.6.9-1.1 1.8-1.7 2.8-.5.8-.9 1.6-1.3 2.4-.6-1.5-1.2-3-1.6-4.3 1.5-.4 3-.7 4.6-.9zm19.9 1.4c.7.2 1.4.4 2 .7 1.9.7 3.4 1.6 4.4 2.5s1.4 1.8 1.4 2.6-.4 1.7-1.4 2.6-2.5 1.8-4.4 2.5c-.7.3-1.5.5-2.3.8-.6-1.8-1.3-3.6-2.2-5.5 1.1-2.1 1.9-4.2 2.5-6.2zm-26.4 0c.6 2 1.4 4 2.4 6.2-.9 1.9-1.6 3.7-2.2 5.5-.8-.2-1.5-.5-2.2-.7-1.9-.7-3.4-1.6-4.4-2.5S4 25.4 4 24.6s.4-1.7 1.4-2.6 2.5-1.8 4.4-2.5c.6-.3 1.3-.5 2-.7zM25 20c-2.7 0-5 2.3-5 5s2.3 5 5 5 5-2.3 5-5-2.3-5-5-5zm-9.7 7.4c.4.8.9 1.6 1.3 2.4.4.6.7 1.3 1.1 1.9-1.3-.2-2.6-.4-3.8-.7.5-1.2.9-2.4 1.4-3.6zm19.3 0c.5 1.2 1 2.5 1.4 3.6-1.2.3-2.5.5-3.8.7.4-.6.8-1.2 1.1-1.9.5-.8.9-1.6 1.3-2.4zm-21.2 5.5c1.8.4 3.8.8 5.9 1 1.4 2 2.8 3.8 4.3 5.4-.7.6-1.3 1.2-1.9 1.7-1.6 1.3-3.2 2.2-4.5 2.6s-2.2.4-3-.1c-.7-.4-1.2-1.2-1.5-2.5-.3-1.3-.3-3.1.1-5.2.1-.8.3-1.8.6-2.9zm23.2 0c.3 1 .5 2.1.7 3 .3 2.1.3 3.9.1 5.2s-.8 2.1-1.5 2.6-1.7.5-3 .1-2.8-1.3-4.5-2.6c-.6-.5-1.3-1.1-1.9-1.8 1.5-1.6 2.9-3.4 4.3-5.4 2-.3 3.9-.6 5.8-1.1zm-14.7 1.2c1 .1 2.1.1 3.1.1s2 0 3-.1c-1 1.4-2.1 2.6-3.1 3.7-1-1.1-2-2.3-3-3.7z" fill="#ddb852"/></svg>