<svg xmlns="http://www.w3.org/2000/svg" viewBox="0 0 32 32"><path d="M7 4c-.6 0-1.1.1-1.7.5-1.3 1-1.7 2.8-.8 4.2l1.2 1.7.6.8.8-.6 3.3-2.3.8-.6-.6-.8-1.1-1.6C9 4.7 8.3 4.2 7.6 4.1 7.4 4 7.2 4 7 4zm-.2 2h.4c.2.1.5.2.7.5l.5.8-1.6 1.1-.7-.9c-.3-.4-.1-1 .4-1.4.1 0 .2-.1.3-.1zm5.8 3.1l-1.7 1.1 11.5 11.1c-1-.2-2.2-.3-3.4-.3-2.3 0-4.4.3-6 .8-.6.2-1.1.4-1.6.7l-3-10.6L6.7 13 10 24.7c.1.7.5 1.2 1 1.6.5.4 1.2.7 2 .9 1.6.5 3.7.8 6 .8s4.4-.3 6-.8c.8-.2 1.5-.5 2-.9s1-1 1-1.8-.5-1.4-1-1.8c-.1-.1-.3-.2-.4-.3l-14-13.3zM19 23c2.1 0 4 .3 5.3.7.7.2 1.2.5 1.4.7.1.1.2.1.2.2l-.2.2c-.3.2-.8.5-1.4.7-1.3.2-3.2.5-5.3.5s-4-.3-5.3-.7c-.7-.2-1.2-.5-1.4-.7-.1-.1-.2-.1-.2-.2l.2-.2c.3-.2.8-.5 1.4-.7 1.3-.2 3.2-.5 5.3-.5z" fill="#ddb852"/></svg>