<svg xmlns="http://www.w3.org/2000/svg" viewBox="0 0 32 32"><path d="M7 4a2.805 2.805 0 0 0-1.656.469l-.032.031h-.03c-1.255.973-1.727 2.785-.813 4.156v.031l1.218 1.688.563.813.813-.563 3.312-2.313.813-.562-.563-.813-1.094-1.593-.031-.032v-.03a3.422 3.422 0 0 0-1.938-1.22A3.062 3.062 0 0 0 7 4zm-.188 2a.932.932 0 0 1 .375 0c.243.059.481.219.688.469l.031.031.5.75L6.75 8.406l-.625-.875c-.281-.422-.168-.984.344-1.406A.872.872 0 0 1 6.812 6zm5.782 3.094l-1.688 1.094L22.437 21.25A24.214 24.214 0 0 0 19 21c-2.293 0-4.383.285-5.969.781-.594.188-1.11.395-1.562.657L8.406 11.905 6.687 13l3.344 11.688c.07.687.5 1.226 1 1.593.543.403 1.207.692 2 .938 1.586.496 3.676.781 5.969.781s4.383-.285 5.969-.781c.793-.246 1.457-.535 2-.938C27.512 25.88 28 25.277 28 24.5c0-.777-.488-1.379-1.031-1.781a4.18 4.18 0 0 0-.438-.282zM19 23c2.125 0 4.035.277 5.344.688.656.203 1.172.46 1.437.656.114.082.16.125.188.156a1.13 1.13 0 0 1-.188.156c-.265.196-.781.453-1.437.657-1.309.41-3.219.687-5.344.687-2.125 0-4.035-.277-5.344-.688-.656-.203-1.172-.46-1.437-.656a1.13 1.13 0 0 1-.188-.156 1.13 1.13 0 0 1 .188-.156c.265-.196.781-.453 1.437-.657C14.965 23.277 16.875 23 19 23z"/></svg>