<svg xmlns="http://www.w3.org/2000/svg" viewBox="0 0 50 50"><path d="M15.8 2c-.1 0-.1 0-.2.1L3.4 6.3c-.3.1-.5.3-.4.6l1.9 15.9c0 .2.1.4.3.5l10.3 5.6c.1.1.2.1.4.1.1 0 .2 0 .3-.1l10.4-5.7c.2-.1.3-.2.3-.5l1.9-15.9c.1-.3-.1-.5-.4-.6L16.1 2.1c-.1-.1-.2-.1-.3-.1zm.1 2.9l7.6 16.4H21l-1.6-3.5h-6.8L11 21.3H8.3l7.6-16.4zm0 5.6l-2.3 5h4.6l-2.3-5zm24.6 12.1c-.4 0-.9.1-1.3.2-.9.3-1.9.9-2.8 1.7-.4.3-.8.7-1.2 1.1-.4-.4-.8-.7-1.1-1-1-.8-2-1.4-2.8-1.7s-1.8-.3-2.6.1-1.2 1.2-1.4 2.2c-.2.9-.2 2.1 0 3.3.1.4.2.9.3 1.3-.4.1-.8.3-1.2.4-1.2.4-2.1 1-2.8 1.6-.7.6-1.2 1.4-1.2 2.3 0 .8.4 1.6 1.2 2.3s1.7 1.2 2.8 1.6c.4.2.8.3 1.3.4-.2.6-.3 1.2-.4 1.8-.2 1.2-.2 2.3 0 3.3s.7 1.7 1.4 2.2c.7.4 1.7.4 2.6.1.9-.3 1.8-.9 2.8-1.7.4-.3.8-.7 1.2-1.1.4.4.8.7 1.2 1.1 1 .8 2 1.4 2.8 1.7.9.3 1.8.3 2.6-.1.7-.4 1.2-1.2 1.4-2.2.2-.9.2-2.1 0-3.3-.1-.6-.2-1.2-.4-1.8.4-.2.9-.3 1.3-.4 1.2-.4 2.1-1 2.8-1.6s1-1.4 1-2.3-.4-1.6-1.2-2.3c-.7-.7-1.7-1.2-2.8-1.6-.4-.2-.8-.3-1.2-.4.1-.4.2-.9.3-1.3.2-1.2.2-2.3 0-3.3-.2-.9-.7-1.7-1.4-2.2-.3-.3-.8-.4-1.2-.4zm0 1.1c.3 0 .5.1.7.2.4.2.7.7.8 1.4s.2 1.7-.1 2.9l-.3 1.2c-1.1-.3-2.4-.5-3.7-.6-.7-.9-1.3-1.8-2.1-2.5.4-.3.7-.7 1.1-1 .9-.7 1.8-1.2 2.5-1.4.5-.1.8-.2 1.1-.2zm-10.6 0c.3 0 .6.1.9.2.7.2 1.6.7 2.5 1.5.3.3.7.6 1.1.9-.7.8-1.4 1.6-2.1 2.6-1.3.1-2.6.3-3.7.6l-.3-1.2c-.2-1.2-.2-2.2-.1-2.9.2-.7.4-1.2.8-1.4.4-.2.6-.3.9-.3zm5.3 3.4c.4.5.9 1.1 1.3 1.6h-1.3c-.4 0-.9 0-1.4.1.4-.6.9-1.2 1.4-1.7zm0 2.7c.8 0 1.5.1 2.2.1.5.7 1 1.4 1.4 2.3.4.7.8 1.4 1.1 2.1-.3.7-.7 1.4-1.1 2.1-.3.6-.7 1.2-1.1 1.8-.8.1-1.7.1-2.5.1-.9 0-1.7-.1-2.6-.1-.4-.6-.7-1.2-1.1-1.8-.4-.7-.8-1.4-1.1-2.1.3-.7.7-1.4 1.1-2.1.4-.8.9-1.6 1.4-2.2.8-.1 1.5-.2 2.3-.2zm3.6.3c.9.1 1.8.3 2.6.4-.2.8-.6 1.6-.9 2.5-.2-.4-.4-.9-.7-1.3-.3-.6-.7-1.1-1-1.6zm-7.4 0c-.3.5-.6 1-.9 1.6-.3.4-.5.9-.7 1.3-.3-.8-.7-1.7-.9-2.4.8-.3 1.6-.4 2.5-.5zm11.1.7c.4.1.8.2 1.1.4 1.1.4 1.9.9 2.5 1.4s.8 1 .8 1.4c0 .4-.2.9-.8 1.4-.6.5-1.4 1-2.5 1.4-.4.2-.8.3-1.3.4-.3-1-.7-2-1.2-3.1.7-1 1.1-2.1 1.4-3.3zm-14.7 0c.3 1.1.8 2.2 1.3 3.5-.5 1.1-.9 2.1-1.2 3.1-.4-.1-.8-.3-1.2-.4-1.1-.4-1.9-.9-2.5-1.4-.6-.5-.8-1.1-.8-1.5 0-.4.2-.9.8-1.4.6-.5 1.4-1 2.5-1.4.3-.2.7-.4 1.1-.5zm7.4.7c-1.5 0-2.8 1.3-2.8 2.8s1.3 2.8 2.8 2.8c1.5 0 2.8-1.3 2.8-2.8s-1.3-2.8-2.8-2.8zm-5.4 4.1c.2.4.5.9.7 1.3.2.3.4.7.6 1.1-.7-.1-1.4-.2-2.1-.4.3-.6.5-1.3.8-2zm10.7 0c.3.7.6 1.4.8 2-.7.2-1.4.3-2.1.4.2-.3.4-.7.6-1.1.3-.4.5-.8.7-1.3zm-11.8 3.1c1 .2 2.1.4 3.3.6.8 1.1 1.6 2.1 2.4 3-.4.3-.7.7-1.1.9-.9.7-1.8 1.2-2.5 1.4s-1.2.2-1.7-.1c-.4-.2-.7-.7-.8-1.4-.2-.7-.2-1.7.1-2.9 0-.3.1-.9.3-1.5zm12.9 0c.2.6.3 1.2.4 1.7.2 1.2.2 2.2.1 2.9-.1.7-.4 1.2-.8 1.4s-.9.3-1.7.1c-.7-.2-1.6-.7-2.5-1.4-.3-.3-.7-.6-1.1-1 .8-.9 1.6-1.9 2.4-3 1.1-.3 2.2-.4 3.2-.7zm-8.2.7c.6.1 1.2.1 1.7.1.6 0 1.1 0 1.7-.1-.6.8-1.2 1.4-1.7 2.1-.5-.7-1.1-1.4-1.7-2.1z" fill="#ddb852"/></svg>